<svg xmlns:svg="http://www.w3.org/2000/svg" xmlns="http://www.w3.org/2000/svg" xmlns:xlink="http://www.w3.org/1999/xlink" viewBox="0 0 250 250">
  <g>
    <path fill="#0362AC" d="M250 229.2c0 11.4-9.3 20.8-20.8 20.8H20.8C9.3 250 0 240.7 0 229.2V20.8C0 9.3 9.3 0 20.8 0h208.3C240.6 0 250 9.3 250 20.8v208.4z"/>
    <path fill="#6BBA52" d="M133.6 86c-6.1 0-11.2 5-11.2 11.2 0 7.9 6.5 9.4 12.2 11.7 10.5 4.2 45 14.4 45 45.2 0 24.3-19.7 43.4-44 43.4H52.3L71.1 164h64.4c5.4 0 9.7-4.5 9.7-9.9 0-6.7-4.9-9-12.1-12-22.2-9.2-46.3-18.1-45.1-47.5.9-23.2 18.9-40.4 42.2-42.2h67.4L178.9 86h-45.3"/>
  </g>
</svg>
